<svg width="32" height="32" viewBox="0 0 32 32" fill="none" xmlns="http://www.w3.org/2000/svg">
<path d="M27.2751 23.6248H27.2771V23.6133L27.2751 23.6248Z" fill="white" fill-opacity="0.65"/>
<path d="M28.821 14.8668C28.4931 14.5316 27.9164 14.5288 27.5838 14.8554L27.0098 15.4197C26.7059 8.96781 21.4635 3.94495 14.9813 3.94495C8.33418 3.94495 2.92651 9.35261 2.92651 15.9997C2.92651 22.6472 8.33418 28.0549 14.9813 28.0549C18.5236 28.0549 21.8759 26.4872 24.1664 23.7686C24.2683 23.6906 24.351 23.5969 24.4135 23.4913C24.4218 23.4812 24.4309 23.4711 24.4402 23.4619L24.4989 23.3682L24.4796 23.3581C24.5191 23.2543 24.5375 23.1542 24.5375 23.0514C24.5375 22.549 24.1297 22.1403 23.6273 22.1403C23.3252 22.1403 23.0423 22.301 22.8779 22.5618C20.9152 24.9195 18.0369 26.2723 14.9813 26.2723C9.31738 26.2723 4.7078 21.6646 4.7078 15.9997C4.7078 10.3362 9.31738 5.72713 14.9813 5.72713C20.6085 5.72713 25.1932 10.2743 25.2529 15.8872L24.2308 14.8618C23.901 14.5298 23.3234 14.5289 22.9936 14.8591C22.6501 15.2007 22.6501 15.7564 22.9918 16.0985L25.15 18.2618C25.3145 18.4281 25.5349 18.519 25.7681 18.519L25.7783 18.5181L25.8012 18.5254C25.8508 18.5373 25.905 18.552 25.9647 18.552C26.1952 18.552 26.4129 18.463 26.5782 18.3013L28.8109 16.1044C28.978 15.9405 29.0717 15.7196 29.0736 15.4854C29.0754 15.2521 28.9854 15.033 28.821 14.8668Z" fill="white" fill-opacity="0.65"/>
</svg>
